<svg height="511pt" viewBox="-72 0 511 511.99941" width="511pt" xmlns="http://www.w3.org/2000/svg"><path d="m176.582031 415.921875c0 44.175781-35.8125 79.988281-79.984375 79.988281-44.175781 0-79.988281-35.8125-79.988281-79.988281 0-44.171875 35.8125-79.984375 79.988281-79.984375 44.171875 0 79.984375 35.8125 79.984375 79.984375zm0 0" fill="#00ddc2"/><path d="m176.582031 0c-8.835937 0-16 7.160156-16 15.996094v328.582031c-39.453125-35.402344-100.136719-32.117187-135.539062 7.335937-35.402344 39.457032-32.117188 100.140626 7.339843 135.542969 39.453126 35.402344 100.136719 32.117188 135.539063-7.339843 12.148437-13.539063 20.203125-30.253907 23.214844-48.195313h1.441406v-399.128906c81.691406 8.316406 143.871094 77.054687 143.972656 159.171875h31.996094c-.117187-105.972656-85.992187-191.851563-191.964844-191.964844zm-79.984375 479.910156c-35.339844 0-63.988281-28.648437-63.988281-63.988281s28.648437-63.988281 63.988281-63.988281 63.988282 28.648437 63.988282 63.988281-28.648438 63.988281-63.988282 63.988281zm0 0" fill="#3e3d42"/></svg>